<?xml version="1.0" encoding="UTF-8"?>
<svg id="Layer_1" xmlns="http://www.w3.org/2000/svg" version="1.1" viewBox="0 0 22 17">
  <!-- Generator: Adobe Illustrator 29.8.3, SVG Export Plug-In . SVG Version: 2.1.1 Build 3)  -->
  <defs>
    <style>
      .st0 {
        fill: #dfe4ed;
      }
    </style>
  </defs>
  <path class="st0" d="M22,17H0V0h22v17ZM15.3,2.7c-2.4,0-3.7,1.6-3.7,3.4,0,1.9,1.3,2.7,3.1,3.3,1.5.5,2.4.9,2.4,2.1s-1,2-2,2c-1.1,0-1.8-.5-2.5-1.5l-1.4,1.2c.8,1.3,2.3,2,3.9,2,2.1,0,4-1.4,4-3.9s-1.6-2.8-3.1-3.3c-1.8-.6-2.4-1-2.4-2,0-.9.6-1.7,1.8-1.7.8,0,1.5.4,2.2,1.2l1.2-1.2c-.9-1.2-2.2-1.6-3.4-1.6ZM1.2,2.9v12.1h3.7c3.2,0,6-2.6,6-6.1s-2.6-5.9-5.7-5.9H1.2ZM4.6,4.6c2.5,0,4.2,1.8,4.2,4.4,0,2.7-1.8,4.5-4.3,4.5h-1.6V4.6h1.6Z"/>
  <path class="st0" d="M8.9-2H-27.3v-27.9H8.9V-2ZM-2.2-25.5c-3.9,0-6.1,2.7-6.1,5.6,0,3.1,2.1,4.5,5.1,5.4,2.4.8,4,1.5,4,3.4s-1.6,3.2-3.4,3.2c-1.8,0-2.9-.8-4.1-2.4l-2.2,2c1.4,2.2,3.7,3.3,6.4,3.3,3.4,0,6.6-2.3,6.6-6.5s-2.6-4.5-5.1-5.4c-2.9-1-4-1.6-4-3.3,0-1.4,1-2.7,2.9-2.7,1.3,0,2.5.6,3.5,1.9l1.9-1.9c-1.4-2-3.6-2.7-5.6-2.7ZM-25.3-25.1V-5.3h6c5.3,0,9.8-4.2,9.8-10.1s-4.2-9.7-9.4-9.7h-6.4ZM-19.7-22.5c4,0,7,2.9,7,7.2,0,4.4-3,7.3-7,7.3h-2.6v-14.5h2.7Z"/>
  <path class="st0" d="M38.8-14h-22v-17h22V-14ZM32.1-28.2c-2.4,0-3.7,1.6-3.7,3.4,0,1.9,1.3,2.7,3.1,3.3,1.5.5,2.4.9,2.4,2.1s-1,2-2,2c-1.1,0-1.8-.5-2.5-1.5l-1.4,1.2c.8,1.3,2.3,2,3.9,2,2.1,0,4-1.4,4-3.9s-1.6-2.8-3.1-3.3c-1.8-.6-2.4-1-2.4-2,0-.9.6-1.7,1.8-1.7.8,0,1.5.4,2.2,1.2l1.2-1.2c-.9-1.2-2.2-1.6-3.4-1.6ZM18-28v12.1h3.7c3.2,0,6-2.6,6-6.1s-2.6-5.9-5.7-5.9h-3.9ZM21.5-26.4c2.5,0,4.2,1.8,4.2,4.4,0,2.7-1.8,4.5-4.3,4.5h-1.6v-8.8h1.6Z"/>
  <path class="st0" d="M-33.7,16.2h-56.9V-27.8h56.9V16.2ZM-51.1-20.7c-6.2,0-9.6,4.2-9.6,8.8,0,4.9,3.3,7,8.1,8.5,3.8,1.2,6.3,2.3,6.3,5.4s-2.5,5.1-5.3,5.1c-2.8,0-4.6-1.3-6.5-3.8l-3.5,3.1c2.2,3.4,5.9,5.2,10.1,5.2,5.4,0,10.4-3.6,10.4-10.2s-4.1-7.2-8-8.4c-4.6-1.6-6.3-2.6-6.3-5.2,0-2.2,1.6-4.3,4.6-4.3,2.1,0,3.9,1,5.6,3.1l3.1-3c-2.2-3.1-5.7-4.3-8.8-4.3ZM-87.6-20.2V11.1h9.5c8.4,0,15.4-6.7,15.4-15.9s-6.7-15.3-14.9-15.3h-10.1ZM-78.7-16c6.4,0,11,4.6,11,11.3,0,6.9-4.8,11.6-11,11.6h-4.1V-16h4.2Z"/>
</svg>